<?xml version="1.0" encoding="iso-8859-1"?>
<!-- Generator: Adobe Illustrator 19.0.0, SVG Export Plug-In . SVG Version: 6.00 Build 0)  -->
<svg version="1.1" id="Layer_1" xmlns="http://www.w3.org/2000/svg" xmlns:xlink="http://www.w3.org/1999/xlink" x="0px" y="0px"
	 viewBox="0 0 512 512" style="enable-background:new 0 0 512 512;" xml:space="preserve">
<path style="fill:#A9A8AE;" d="M189.857,48.194c0,0-25.453,38.951-39.342,91.114l-8.354,45.181l135.713,95.773l27.109-82.742
	C286.335,113.437,223.204,122.856,189.857,48.194z"/>
<path style="fill:#CACACD;" d="M256.966,318.308c18.106-46.127,36.213-76.449,0-122.72C220.754,149.316,124.187,141.8,51.762,94.997
	c0,0-14.846,59.994,21.476,111.366l-0.04-0.048c0,0,11.897,150.217,123.771,150.217L256.966,318.308z"/>
<path style="fill:#E6E6E6;" d="M335.512,184.488c-73.433,0-76.451,164.137-335.512,164.137
	c11.41,155.452,268.951,146.257,331.848,16.186c26.448-54.694,31.49-117.349,62.091-129.044
	C379.75,214.861,373.06,184.488,335.512,184.488z"/>
<circle style="fill:#4D4D4D;" cx="333.75" cy="230.09" r="8.558"/>
<rect x="377.649" y="253.807" transform="matrix(-0.9462 -0.3236 0.3236 -0.9462 761.424 713.8578)" style="fill:#F7BA35;" width="124.821" height="79.64"/>
<rect x="438.376" y="263.898" transform="matrix(-0.9462 -0.3236 0.3236 -0.9462 815.6129 743.0508)" style="fill:#FD9702;" width="62.41" height="79.64"/>
<polygon style="fill:#FBDA35;" points="448.06,270.227 368.122,311.1 486.229,351.491 "/>
<polygon style="fill:#F7BA35;" points="448.06,270.227 427.175,331.295 486.229,351.491 "/>
<polygon style="fill:#FDE888;" points="393.892,235.743 435.906,305.765 512,276.134 "/>
<polygon style="fill:#FBDA35;" points="452.946,255.939 435.906,305.765 512,276.134 "/>
<g>
</g>
<g>
</g>
<g>
</g>
<g>
</g>
<g>
</g>
<g>
</g>
<g>
</g>
<g>
</g>
<g>
</g>
<g>
</g>
<g>
</g>
<g>
</g>
<g>
</g>
<g>
</g>
<g>
</g>
</svg>
